<svg width="266" height="56" viewBox="0 0 266 56" fill="none" xmlns="http://www.w3.org/2000/svg">
<path d="M94.4743 47.7297C91.9461 47.7297 89.5623 47.2613 87.323 46.3243C85.1198 45.3514 83.1513 44 81.4177 42.2703C79.7201 40.5045 78.3838 38.4324 77.4086 36.0541C76.4695 33.6396 76 30.955 76 28C76 25.3333 76.4695 22.8468 77.4086 20.5405C78.3838 18.2342 79.7382 16.1982 81.4719 14.4324C83.2416 12.6667 85.2823 11.2973 87.5939 10.3243C89.9415 9.31531 92.4698 8.81081 95.1786 8.81081C98.7182 8.81081 101.824 9.56757 104.497 11.0811C107.206 12.5946 109.228 14.6306 110.565 17.1892L103.955 22.1622C103.088 20.4685 101.824 19.1351 100.163 18.1622C98.5015 17.1892 96.7317 16.7027 94.8536 16.7027C92.9032 16.7027 91.1876 17.2252 89.7068 18.2703C88.2259 19.2793 87.0701 20.6667 86.2394 22.4324C85.4087 24.1982 84.9934 26.1622 84.9934 28.3243C84.9934 30.5225 85.4268 32.5045 86.2936 34.2703C87.1604 36 88.3523 37.3694 89.8693 38.3784C91.4224 39.3514 93.2102 39.8378 95.2328 39.8378C98.7001 39.8378 101.824 38.2523 104.605 35.0811V33.8378H97.129V27.4054H111.973V47.4595H104.605V43.6757C101.68 46.3784 98.3028 47.7297 94.4743 47.7297Z" fill="white"/>
<path d="M117.143 15.8378V8H125.811V15.8378H117.143ZM117.143 47.4595V19.0811H125.811V47.4595H117.143Z" fill="white"/>
<path d="M150.166 45.9459C148.974 46.4505 147.601 46.9189 146.048 47.3514C144.531 47.7838 142.996 48 141.443 48C139.998 48 138.68 47.7658 137.488 47.2973C136.296 46.7928 135.339 45.982 134.617 44.8649C133.894 43.7477 133.533 42.2703 133.533 40.4324V25.6216H129.903V19.0811H133.533V10.0541H142.202V19.0811H147.999V25.6216H142.202V37.4595C142.202 38.3964 142.436 39.0811 142.906 39.5135C143.375 39.9099 143.971 40.1081 144.694 40.1081C145.344 40.1081 146.012 40 146.698 39.7838C147.385 39.5676 147.98 39.3333 148.486 39.0811L150.166 45.9459Z" fill="white"/>
<path d="M171.584 26.4865C169.489 26.5225 167.593 26.8649 165.896 27.5135C164.198 28.1622 162.97 29.1351 162.211 30.4324V47.4595H153.543V19.0811H161.507V24.8108C162.482 22.9009 163.747 21.4054 165.3 20.3243C166.853 19.2432 168.478 18.6847 170.175 18.6486C170.898 18.6486 171.367 18.6667 171.584 18.7027V26.4865Z" fill="white"/>
<path d="M173.236 38.973C173.236 37.0991 173.759 35.4595 174.807 34.0541C175.854 32.6486 177.299 31.5496 179.141 30.7568C180.983 29.9279 183.096 29.5135 185.48 29.5135C186.635 29.5135 187.773 29.6216 188.893 29.8378C190.012 30.018 190.988 30.2883 191.818 30.6486V29.4054C191.818 26.1982 189.922 24.5946 186.13 24.5946C184.541 24.5946 183.042 24.8649 181.633 25.4054C180.261 25.9459 178.798 26.7207 177.245 27.7297L174.644 22.2162C178.401 19.7658 182.518 18.5405 186.997 18.5405C191.258 18.5405 194.563 19.5676 196.911 21.6216C199.295 23.6396 200.487 26.5766 200.487 30.4324V37.8378C200.487 38.7027 200.613 39.3153 200.866 39.6757C201.155 40.036 201.642 40.2342 202.329 40.2703V47.4595C201.57 47.6036 200.884 47.7117 200.27 47.7838C199.656 47.8559 199.114 47.8919 198.645 47.8919C197.019 47.8919 195.773 47.5676 194.906 46.9189C194.076 46.2703 193.552 45.3874 193.335 44.2703L193.173 43.027C191.909 44.6486 190.392 45.8919 188.622 46.7568C186.852 47.5856 185.028 48 183.15 48C181.272 48 179.574 47.6036 178.057 46.8108C176.577 46.018 175.403 44.955 174.536 43.6216C173.669 42.2523 173.236 40.7027 173.236 38.973ZM190.464 40.0541C191.367 39.3333 191.818 38.5946 191.818 37.8378V35.2973C191.06 35.009 190.229 34.7928 189.326 34.6486C188.459 34.4685 187.665 34.3784 186.942 34.3784C185.317 34.3784 183.981 34.7387 182.933 35.4595C181.922 36.1802 181.416 37.0991 181.416 38.2162C181.416 39.1892 181.796 40.036 182.554 40.7568C183.349 41.4414 184.396 41.7838 185.696 41.7838C186.563 41.7838 187.43 41.6216 188.297 41.2973C189.164 40.973 189.886 40.5586 190.464 40.0541Z" fill="white"/>
<path d="M220.366 48C217.188 48 214.443 47.3153 212.131 45.9459C209.856 44.5766 208.104 42.7748 206.876 40.5405C205.684 38.3063 205.088 35.8739 205.088 33.2432C205.088 30.6486 205.684 28.2342 206.876 26C208.104 23.7658 209.856 21.964 212.131 20.5946C214.407 19.2252 217.152 18.5405 220.366 18.5405C223.617 18.5405 226.362 19.2432 228.601 20.6486C230.876 22.018 232.574 23.8198 233.694 26.0541L225.242 28.5946C224.122 26.7928 222.479 25.8919 220.312 25.8919C218.542 25.8919 217.043 26.5586 215.815 27.8919C214.587 29.2252 213.973 31.009 213.973 33.2432C213.973 35.4775 214.587 37.2793 215.815 38.6487C217.043 40.018 218.542 40.7027 220.312 40.7027C221.395 40.7027 222.389 40.4505 223.292 39.9459C224.195 39.4054 224.863 38.7207 225.296 37.8919L233.748 40.4865C232.7 42.6847 231.021 44.4865 228.709 45.8919C226.434 47.2973 223.653 48 220.366 48Z" fill="white"/>
<path d="M256.79 47.4595L249.368 36.1081L246.334 39.1892V47.4595H237.665V8H246.334V30.8108L255.977 19.0811H265.133L254.894 31.2973L266 47.4595H256.79Z" fill="white"/>
<circle cx="28" cy="28" r="28" fill="white"/>
<path d="M42.1562 13.8438C46.0312 17.7188 47.9688 22.4375 47.9688 28C47.9688 33.5 46 38.2188 42.0625 42.1562C38.1875 46.0312 33.5 47.9688 28 47.9688C22.5 47.9688 17.7812 46.0312 13.8438 42.1562C9.96875 38.2188 8.03125 33.5 8.03125 28C8.03125 22.5 9.96875 17.8125 13.8438 13.9375C17.7812 10 22.5 8.03125 28 8.03125H29.9688V24.5312C31.3438 25.2812 32.0312 26.4375 32.0312 28C32.0312 29.0625 31.625 30 30.8125 30.8125C30 31.625 29.0625 32.0312 28 32.0312C26.9375 32.0312 26 31.625 25.1875 30.8125C24.375 30 23.9688 29.0625 23.9688 28C23.9688 26.4375 24.6562 25.2812 26.0312 24.5312V20.3125C24.2812 20.8125 22.8438 21.75 21.7188 23.125C20.5938 24.5 20.0312 26.125 20.0312 28C20.0312 30.1875 20.8125 32.0625 22.375 33.625C23.9375 35.1875 25.8125 35.9688 28 35.9688C30.1875 35.9688 32.0625 35.1875 33.625 33.625C35.1875 32.0625 35.9688 30.1875 35.9688 28C35.9688 25.9375 35.1875 24.0625 33.625 22.375L36.4375 19.5625C38.8125 21.9375 40 24.75 40 28C40 31.3125 38.8125 34.1562 36.4375 36.5312C34.125 38.8438 31.3125 40 28 40C24.6875 40 21.8438 38.8438 19.4688 36.5312C17.1562 34.1562 16 31.3125 16 28C16 25.0625 16.9375 22.5 18.8125 20.3125C20.75 18.0625 23.1562 16.6875 26.0312 16.1875V12.1562C22.0938 12.6562 18.75 14.4062 16 17.4062C13.3125 20.4062 11.9688 23.9375 11.9688 28C11.9688 32.375 13.5312 36.1562 16.6562 39.3438C19.8438 42.4688 23.625 44.0312 28 44.0312C32.375 44.0312 36.125 42.4688 39.25 39.3438C42.4375 36.1562 44.0312 32.375 44.0312 28C44.0312 26.1875 43.5625 24.1875 42.625 22C41.75 19.75 40.6562 17.9688 39.3438 16.6562L42.1562 13.8438Z" fill="#2057E3"/>
</svg>
