<svg width="100" height="100" viewBox="0 0 100 100" fill="none" xmlns="http://www.w3.org/2000/svg">
<path fill-rule="evenodd" clip-rule="evenodd" d="M50 100C77.6142 100 100 77.6142 100 50C100 22.3858 77.6142 0 50 0C22.3858 0 0 22.3858 0 50C0 77.6142 22.3858 100 50 100Z" fill="#F0F1F3"/>
<mask id="mask0" mask-type="alpha" maskUnits="userSpaceOnUse" x="0" y="0" width="100" height="100">
<path fill-rule="evenodd" clip-rule="evenodd" d="M50 100C77.6142 100 100 77.6142 100 50C100 22.3858 77.6142 0 50 0C22.3858 0 0 22.3858 0 50C0 77.6142 22.3858 100 50 100Z" fill="white"/>
</mask>
<g mask="url(#mask0)">
<path fill-rule="evenodd" clip-rule="evenodd" d="M62.6724 44.8682C59.1812 48.3594 54.957 50.1049 49.9996 50.1049C45.0421 50.1049 40.8179 48.3594 37.3268 44.8682C33.8356 41.3771 32.0901 37.1528 32.0901 32.1954C32.0901 27.238 33.8356 23.0137 37.3268 19.5226C40.8179 16.0314 45.0421 14.2859 49.9996 14.2859C54.957 14.2859 59.1812 16.0314 62.6724 19.5226C66.1635 23.0137 67.9091 27.238 67.9091 32.1954C67.9091 37.1528 66.1635 41.3771 62.6724 44.8682ZM35.4412 60.9975C40.7477 59.7406 45.6003 59.1122 49.9992 59.1122C54.398 59.1122 59.2507 59.7406 64.5572 60.9975C69.8638 62.2543 74.7164 64.314 79.1152 67.1768C83.5141 70.0395 85.7135 73.2862 85.7135 76.917V100.924H14.2849V76.917C14.2849 73.2862 16.4843 70.0395 20.8832 67.1768C25.282 64.314 30.1346 62.2543 35.4412 60.9975Z" fill="#D4D6D8"/>
</g>
</svg>
