<svg width="1440" height="810" viewBox="0 0 1440 810" fill="none" xmlns="http://www.w3.org/2000/svg">
<path d="M467.965 -961L-755 362.465M491.467 -939.282L-731.498 384.183M514.969 -917.565L-707.996 405.9M538.472 -895.848L-684.493 427.618M561.974 -874.13L-660.991 449.335M585.476 -852.413L-637.489 471.053M608.978 -830.695L-613.987 492.77M632.48 -808.978L-590.485 514.488M655.982 -787.26L-566.983 536.205M679.485 -765.543L-543.481 557.923M702.987 -743.825L-519.978 579.64M726.489 -722.108L-496.476 601.358M749.991 -700.39L-472.974 623.075M773.493 -678.673L-449.472 644.792M796.995 -656.955L-425.97 666.51M820.498 -635.238L-402.468 688.227M844 -613.52L-378.965 709.945M867.502 -591.803L-355.463 731.662M891.004 -570.085L-331.961 753.38M914.506 -548.368L-308.459 775.097M938.008 -526.651L-284.957 796.815M961.51 -504.933L-261.455 818.532M985.013 -483.216L-237.952 840.25M1008.51 -461.498L-214.45 861.967M1032.02 -439.781L-190.948 883.685M1055.52 -418.063L-167.446 905.402M1079.02 -396.346L-143.944 927.12M1102.52 -374.628L-120.442 948.837M1126.03 -352.911L-96.9395 970.555M1149.53 -331.193L-73.4373 992.272M1173.03 -309.476L-49.9352 1013.99M1196.53 -287.758L-26.433 1035.71M1220.03 -266.041L-2.93086 1057.42M1243.54 -244.323L20.5713 1079.14M1267.04 -222.606L44.0735 1100.86M1290.54 -200.888L67.5756 1122.58M1314.04 -179.171L91.0778 1144.29M1337.55 -157.454L114.58 1166.01M1361.05 -135.736L138.082 1187.73M1384.55 -114.019L161.584 1209.45M1408.05 -92.3011L185.086 1231.16M1431.55 -70.5836L208.589 1252.88M1455.06 -48.8662L232.091 1274.6M1478.56 -27.1487L255.593 1296.32M1502.06 -5.43123L279.095 1318.03M1525.56 16.2862L302.597 1339.75M1549.06 38.0037L326.099 1361.47M1572.57 59.7212L349.602 1383.19M1596.07 81.4387L373.104 1404.9M1619.57 103.156L396.606 1426.62M1643.07 124.874L420.108 1448.34M1666.58 146.591L443.61 1470.06M1690.08 168.309L467.112 1491.77M1713.58 190.026L490.614 1513.49M1737.08 211.743L514.117 1535.21M1760.58 233.461L537.619 1556.93M1784.09 255.178L561.121 1578.64M1807.59 276.896L584.623 1600.36M1831.09 298.613L608.125 1622.08M1854.59 320.331L631.627 1643.8M1878.09 342.048L655.13 1665.51M1901.6 363.766L678.632 1687.23M1925.1 385.483L702.134 1708.95M1948.6 407.201L725.636 1730.67" stroke="#3568EC" stroke-width="2"/>
</svg>
